# xmcd
#
# Track frame offsets:
#	150
#	13383
#	23583
#	36938
#	47529
#	59278
#	69542
#	85302
#	96947
#	106399
#	118666
#	132066
#	144081
#	157564
#	168762
#	179867
#	191072
#
# Disc length: 2676
#
# Revision: 3
# Processed by: cddbd v1.5.1PL0 Copyright (c) Steve Scherf et al.
# Submitted via: dBpowerAMP V4.0
# Normalized: r2:DSETVAR2
#
DISCID=de0a7211
DTITLE=Various Artist - The Best Of Country and Western 11 van 12
DYEAR=1900
DGENRE=Country
TTITLE0=Don Williams - Where do I go from here?
TTITLE1=Carl Perkins - Daddy sang bass
TTITLE2=John Denver - Eagle and the hawk
TTITLE3=Patsy Cline - Honky tonk merry go round
TTITLE4=Jim Reves - Mexican Joe
TTITLE5=Billie Jo Spears - It makes no difference now
TTITLE6=Charly Pride - Let me live in the light of His love
TTITLE7=Brenda Lee - Silver threads and golden needles
TTITLE8=Dave Dudley - Six days on the road
TTITLE9=Anne Murray - All the time
TTITLE10=George Jones - Almost persuaded
TTITLE11=Johnny Cash - Sixteen tons
TTITLE12=Jimmy Dean - Big bad John
TTITLE13=Jo Ann Houston - The race is on
TTITLE14=Kenny Rogers - She even woke me up to say goodbye
TTITLE15=Roy Drusky - Blue eyes crying in the rain
TTITLE16=Hank Locklin - Please help me I'm falling
EXTD=
EXTT0=
EXTT1=
EXTT2=
EXTT3=
EXTT4=
EXTT5=
EXTT6=
EXTT7=
EXTT8=
EXTT9=
EXTT10=
EXTT11=
EXTT12=
EXTT13=
EXTT14=
EXTT15=
EXTT16=
PLAYORDER=
